<svg width="26" height="26" viewBox="0 0 26 26" fill="none" xmlns="http://www.w3.org/2000/svg">
	<circle cx="13.042" cy="12.8096" r="12.8096" fill="#00A7E1" />
	<g clip-path="url(#clip0_1_5135)">
		<path d="M18.1886 15.5537H10.788C10.5184 15.5537 10.2979 15.3331 10.2979 15.0636V7.66296C10.2979 7.3934 10.5184 7.17285 10.788 7.17285H18.1886C18.4581 7.17285 18.6787 7.3934 18.6787 7.66296V15.0513C18.6787 15.3331 18.4581 15.5537 18.1886 15.5537ZM11.2781 14.5612H17.6862V8.16532H11.2781V14.5612ZM15.542 17.8572V16.5584C15.542 16.3501 15.3705 16.1908 15.1744 16.1908C14.9784 16.1908 14.8068 16.3623 14.8068 16.5584V17.7101H8.15366V11.0569H9.29316C9.50145 11.0569 9.66074 10.8854 9.66074 10.6894C9.66074 10.4933 9.4892 10.3218 9.29316 10.3218H7.99438C7.67581 10.3218 7.40625 10.5791 7.40625 10.9099V17.8817C7.40625 18.188 7.66356 18.4453 7.99438 18.4453H14.9661C15.2847 18.4453 15.542 18.188 15.542 17.8572Z" fill="white" />
	</g>
	<defs>
		<clipPath id="clip0_1_5135">
			<rect width="11.2724" height="11.2724" fill="white" transform="translate(7.40625 7.17285)" />
		</clipPath>
	</defs>
</svg>
