<svg width="26" height="26" viewBox="0 0 26 26" fill="none" xmlns="http://www.w3.org/2000/svg">
    <circle cx="13.0404" cy="13.0433" r="12.808" fill="#FF5E5E" />
    <g clip-path="url(#clip0_1_5155)">
        <path d="M12.6872 15.8616C12.6872 15.955 12.7243 16.0446 12.7904 16.1106C12.8564 16.1767 12.946 16.2138 13.0394 16.2138C13.1328 16.2138 13.2224 16.1767 13.2885 16.1106C13.3545 16.0446 13.3916 15.955 13.3916 15.8616V12.6916C13.3916 12.5982 13.3545 12.5086 13.2885 12.4425C13.2224 12.3765 13.1328 12.3394 13.0394 12.3394C12.946 12.3394 12.8564 12.3765 12.7904 12.4425C12.7243 12.5086 12.6872 12.5982 12.6872 12.6916V15.8616ZM11.6305 12.6916C11.5371 12.6916 11.4475 12.7287 11.3815 12.7947C11.3154 12.8608 11.2783 12.9504 11.2783 13.0438V15.1571C11.2783 15.2505 11.3154 15.3401 11.3815 15.4062C11.4475 15.4722 11.5371 15.5093 11.6305 15.5093C11.724 15.5093 11.8135 15.4722 11.8796 15.4062C11.9457 15.3401 11.9828 15.2505 11.9828 15.1571V13.0438C11.9828 12.9504 11.9457 12.8608 11.8796 12.7947C11.8135 12.7287 11.724 12.6916 11.6305 12.6916ZM14.4483 15.5093C14.5417 15.5093 14.6313 15.4722 14.6974 15.4062C14.7634 15.3401 14.8005 15.2505 14.8005 15.1571V13.0438C14.8005 12.9504 14.7634 12.8608 14.6974 12.7947C14.6313 12.7287 14.5417 12.6916 14.4483 12.6916C14.3549 12.6916 14.2653 12.7287 14.1992 12.7947C14.1332 12.8608 14.0961 12.9504 14.0961 13.0438V15.1571C14.0961 15.2505 14.1332 15.3401 14.1992 15.4062C14.2653 15.4722 14.3549 15.5093 14.4483 15.5093Z" fill="white" />
        <path d="M17.2664 8.46486H15.7591L15.4872 7.64912C15.4638 7.57899 15.419 7.51798 15.359 7.47474C15.2991 7.4315 15.227 7.40822 15.1531 7.4082H10.9265C10.8526 7.40822 10.7805 7.4315 10.7205 7.47474C10.6606 7.51798 10.6158 7.57899 10.5924 7.64912L10.3205 8.46486H8.81316C8.71974 8.46486 8.63015 8.50197 8.5641 8.56803C8.49805 8.63408 8.46094 8.72367 8.46094 8.81708V10.226C8.46094 10.3194 8.49805 10.409 8.5641 10.475C8.63015 10.5411 8.71974 10.5782 8.81316 10.5782H9.16538V17.6226C9.16538 18.2053 9.63929 18.6792 10.222 18.6792H15.8576C16.4403 18.6792 16.9142 18.2053 16.9142 17.6226V10.5782H17.2664C17.3598 10.5782 17.4494 10.5411 17.5155 10.475C17.5815 10.409 17.6187 10.3194 17.6187 10.226V8.81708C17.6187 8.72367 17.5815 8.63408 17.5155 8.56803C17.4494 8.50197 17.3598 8.46486 17.2664 8.46486ZM16.9142 9.87374H13.0398C12.9464 9.87374 12.8568 9.91085 12.7907 9.9769C12.7247 10.043 12.6876 10.1325 12.6876 10.226C12.6876 10.3194 12.7247 10.409 12.7907 10.475C12.8568 10.5411 12.9464 10.5782 13.0398 10.5782H16.2098V17.6226C16.2098 17.8168 16.0518 17.9748 15.8576 17.9748H10.222C10.0278 17.9748 9.86982 17.8168 9.86982 17.6226V10.226C9.86982 10.1325 9.83271 10.043 9.76665 9.9769C9.7006 9.91085 9.61101 9.87374 9.5176 9.87374H9.16538V9.1693H10.5743C10.6482 9.16928 10.7202 9.14601 10.7802 9.10277C10.8401 9.05953 10.885 8.99852 10.9083 8.92838L11.1803 8.11264H14.8992L15.1711 8.92838C15.1945 8.99853 15.2393 9.05955 15.2993 9.10278C15.3593 9.14602 15.4314 9.16929 15.5053 9.1693H16.9142V9.87374Z" fill="white" />
        <path d="M11.3822 9.97748C11.3153 10.0426 11.2783 10.1325 11.2783 10.2258C11.2783 10.3191 11.3153 10.4089 11.3822 10.4741C11.4474 10.541 11.5372 10.578 11.6305 10.578C11.7239 10.578 11.8137 10.541 11.8789 10.4741C11.9458 10.4089 11.9828 10.3191 11.9828 10.2258C11.9828 10.1325 11.9458 10.0426 11.8789 9.97748C11.7468 9.8454 11.5125 9.8454 11.3822 9.97748Z" fill="white" />
    </g>
    <defs>
        <clipPath id="clip0_1_5155">
            <rect width="11.271" height="11.271" fill="white" transform="translate(7.4043 7.4082)" />
        </clipPath>
    </defs>
</svg>
