<svg width="14" height="14" viewBox="0 0 14 14" fill="none" xmlns="http://www.w3.org/2000/svg">
    <path d="M6.99967 4.66706L2.33301 9.33372V11.667H4.66634L9.33301 7.00038M6.99967 4.66706L8.67302 2.99368L8.67407 2.99268C8.90437 2.76234 9.01976 2.64696 9.15276 2.60375C9.26995 2.56568 9.39612 2.56568 9.51332 2.60375C9.6462 2.64693 9.76147 2.76217 9.99147 2.99219L11.0064 4.00708C11.2374 4.23809 11.3529 4.35365 11.3962 4.48684C11.4343 4.604 11.4342 4.7302 11.3962 4.84736C11.353 4.98045 11.2376 5.09583 11.0069 5.32651L11.0064 5.32701L9.33301 7.00038M6.99967 4.66706L9.33301 7.00038"
          stroke="#A4A4A4" strokeLinecap="round" strokeLinejoin="round"/>
</svg>
