<svg width="1118" height="793" viewBox="0 0 1118 793" fill="none" xmlns="http://www.w3.org/2000/svg">
    <g opacity="0.8">
        <path d="M1 0V793" stroke="#F3F3F3"/>
        <path d="M57.9531 0V793" stroke="#ECECEC"/>
        <path d="M114.896 0V793" stroke="#ECECEC"/>
        <path d="M172.844 0V793" stroke="#ECECEC"/>
        <path d="M229.797 0V793" stroke="#ECECEC"/>
        <path d="M286.744 0V793" stroke="#ECECEC"/>
        <path d="M343.692 0V793" stroke="#ECECEC"/>
        <path d="M400.642 0V793" stroke="#ECECEC"/>
        <path d="M458.589 0V793" stroke="#ECECEC"/>
        <path d="M515.541 0V793" stroke="#ECECEC"/>
        <path d="M572.489 0V793" stroke="#ECECEC"/>
        <path d="M629.438 0V793" stroke="#ECECEC"/>
        <path d="M686.386 0V793" stroke="#ECECEC"/>
        <path d="M744.333 0V793" stroke="#ECECEC"/>
        <path d="M801.285 0V793" stroke="#ECECEC"/>
        <path d="M858.233 0V793" stroke="#ECECEC"/>
        <path d="M915.182 0V793" stroke="#ECECEC"/>
        <path d="M972.13 0V793" stroke="#ECECEC"/>
        <path d="M1030.08 0V793" stroke="#ECECEC"/>
        <path d="M1087.03 0V793" stroke="#ECECEC"/>
        <path d="M1118 31.0986L0.999997 31.0986" stroke="#ECECEC"/>
        <path d="M1118 79.9668L0.999997 79.9667" stroke="#ECECEC"/>
        <path d="M1118 128.834L0.999997 128.834" stroke="#ECECEC"/>
        <path d="M1118 177.703L0.999997 177.703" stroke="#ECECEC"/>
        <path d="M1118 226.571L0.999997 226.571" stroke="#ECECEC"/>
        <path d="M1118 275.44L0.999997 275.44" stroke="#ECECEC"/>
        <path d="M1118 324.309L0.999997 324.309" stroke="#ECECEC"/>
        <path d="M1118 373.176L0.999997 373.176" stroke="#ECECEC"/>
        <path d="M1118 422.044L0.999997 422.044" stroke="#ECECEC"/>
        <path d="M1118 470.913L0.999997 470.913" stroke="#ECECEC"/>
        <path d="M1118 519.782L0.999997 519.782" stroke="#ECECEC"/>
        <path d="M1118 568.65L0.999997 568.65" stroke="#ECECEC"/>
        <path d="M1118 617.518L0.999997 617.518" stroke="#ECECEC"/>
        <path d="M1118 666.386L0.999997 666.386" stroke="#ECECEC"/>
        <path d="M1118 715.255L0.999997 715.255" stroke="#ECECEC"/>
        <path d="M1118 764.123L0.999997 764.123" stroke="#ECECEC"/>
    </g>
</svg>
