<svg width="11" height="11" viewBox="0 0 11 11" fill="none" xmlns="http://www.w3.org/2000/svg">
<path fill-rule="evenodd" clip-rule="evenodd" d="M7.88268 7.24199L9.94518 9.30449C10.1285 9.48782 10.1285 9.76283 9.94518 9.94616C9.85352 10.0378 9.71601 10.0837 9.62435 10.0837C9.53268 10.0837 9.39518 10.0378 9.30351 9.94616L7.24102 7.88366C6.55352 8.38783 5.72852 8.70866 4.81185 8.70866C2.65768 8.70866 0.916016 6.96699 0.916016 4.81283C0.916016 2.65866 2.65768 0.916992 4.81185 0.916992C6.96602 0.916992 8.70768 2.65866 8.70768 4.81283C8.70768 5.72949 8.38685 6.60033 7.88268 7.24199ZM4.81185 1.83366C3.16185 1.83366 1.83268 3.16283 1.83268 4.81283C1.83268 6.46283 3.16185 7.79199 4.81185 7.79199C5.63685 7.79199 6.37018 7.47116 6.92018 6.92116C7.47018 6.37116 7.79102 5.63783 7.79102 4.81283C7.79102 3.16283 6.46185 1.83366 4.81185 1.83366Z" fill="black"/>
<mask id="mask0_536_3946" style="mask-type:luminance" maskUnits="userSpaceOnUse" x="0" y="0" width="11" height="11">
<path fill-rule="evenodd" clip-rule="evenodd" d="M7.88268 7.24199L9.94518 9.30449C10.1285 9.48782 10.1285 9.76283 9.94518 9.94616C9.85352 10.0378 9.71601 10.0837 9.62435 10.0837C9.53268 10.0837 9.39518 10.0378 9.30351 9.94616L7.24102 7.88366C6.55352 8.38783 5.72852 8.70866 4.81185 8.70866C2.65768 8.70866 0.916016 6.96699 0.916016 4.81283C0.916016 2.65866 2.65768 0.916992 4.81185 0.916992C6.96602 0.916992 8.70768 2.65866 8.70768 4.81283C8.70768 5.72949 8.38685 6.60033 7.88268 7.24199ZM4.81185 1.83366C3.16185 1.83366 1.83268 3.16283 1.83268 4.81283C1.83268 6.46283 3.16185 7.79199 4.81185 7.79199C5.63685 7.79199 6.37018 7.47116 6.92018 6.92116C7.47018 6.37116 7.79102 5.63783 7.79102 4.81283C7.79102 3.16283 6.46185 1.83366 4.81185 1.83366Z" fill="white"/>
</mask>
<g mask="url(#mask0_536_3946)">
<rect width="11" height="11" fill="#6E6B7B"/>
</g>
</svg>
